<?xml version="1.0" encoding="UTF-8"?>
<svg xmlns="http://www.w3.org/2000/svg" xmlns:xlink="http://www.w3.org/1999/xlink" width="50pt" height="50pt" viewBox="0 0 50 50" version="1.1">
<g id="surface1">
<path style=" stroke:none;fill-rule:nonzero;fill:rgb(0%,0%,0%);fill-opacity:1;" d="M 49.367188 6.332031 L 34.785156 0.0820312 C 34.359375 -0.0976562 33.855469 0.0234375 33.5625 0.390625 L 29.394531 5.597656 C 29.199219 5.84375 29.121094 6.164062 29.191406 6.472656 C 29.257812 6.765625 29.449219 7.007812 29.707031 7.152344 L 16.621094 12.0625 C 15.523438 12.472656 14.582031 13.253906 13.980469 14.257812 L 9.65625 21.46875 C 8.734375 23.003906 8.664062 24.875 9.464844 26.476562 L 9.769531 27.082031 L 5.207031 27.082031 C 4.632812 27.082031 4.167969 27.550781 4.167969 28.125 L 4.167969 47.917969 L 1.042969 47.917969 C 0.464844 47.917969 0 48.382812 0 48.957031 C 0 49.535156 0.464844 50 1.042969 50 L 36.457031 50 C 37.035156 50 37.5 49.535156 37.5 48.957031 C 37.5 48.382812 37.035156 47.917969 36.457031 47.917969 L 33.332031 47.917969 L 33.332031 33.332031 C 33.332031 33.253906 33.304688 33.1875 33.289062 33.113281 C 35.242188 31.789062 37.476562 29.75 39.425781 26.59375 C 42.734375 21.238281 44.597656 16.929688 45.359375 14.988281 L 45.476562 15.046875 C 45.921875 15.269531 46.398438 15.382812 46.878906 15.382812 C 47.445312 15.382812 48.011719 15.226562 48.515625 14.910156 C 49.445312 14.335938 50 13.34375 50 12.253906 L 50 7.289062 C 50 6.875 49.753906 6.5 49.367188 6.332031 Z M 31.25 47.917969 L 6.25 47.917969 L 6.25 29.167969 L 11.472656 29.167969 C 11.5 29.167969 11.523438 29.167969 11.550781 29.167969 L 19.808594 29.167969 C 18.867188 29.738281 17.714844 30.457031 16.253906 31.386719 C 15.144531 32.09375 14.382812 33.1875 14.113281 34.476562 C 13.839844 35.761719 14.089844 37.078125 14.828125 38.175781 C 15.757812 39.578125 17.292969 40.339844 18.863281 40.339844 C 19.714844 40.339844 20.578125 40.117188 21.359375 39.652344 L 28.515625 35.359375 C 28.925781 35.257812 29.933594 34.96875 31.25 34.3125 Z M 17.421875 24.453125 C 19.015625 23.769531 21.144531 22.53125 22.226562 21.269531 C 23.058594 21.757812 24.367188 22.386719 26.003906 22.707031 C 24.839844 24.144531 23.671875 25.894531 23.179688 27.136719 C 23.09375 27.113281 23.011719 27.082031 22.917969 27.082031 L 18.636719 27.082031 C 18.417969 26.046875 17.90625 25.132812 17.421875 24.453125 Z M 37.660156 25.5 C 33.550781 32.144531 27.980469 33.347656 27.925781 33.355469 C 27.808594 33.382812 27.695312 33.425781 27.589844 33.484375 L 20.292969 37.863281 C 19.019531 38.628906 17.382812 38.261719 16.558594 37.023438 C 16.140625 36.394531 16 35.644531 16.152344 34.910156 C 16.308594 34.175781 16.742188 33.550781 17.375 33.148438 C 22.972656 29.582031 23.984375 29.191406 23.960938 29.167969 C 24.539062 29.167969 25.003906 28.753906 25.003906 28.175781 C 25.109375 27.523438 27.007812 24.476562 28.867188 22.613281 C 29.164062 22.316406 29.253906 21.867188 29.089844 21.480469 C 28.929688 21.089844 28.550781 20.835938 28.128906 20.835938 C 24.886719 20.835938 22.554688 19 22.53125 18.980469 C 22.21875 18.734375 21.800781 18.617188 21.4375 18.792969 C 21.074219 18.964844 20.855469 19.265625 20.855469 19.664062 C 20.484375 20.558594 16.488281 22.820312 15.625 22.917969 C 15.195312 22.917969 14.816406 23.175781 14.660156 23.578125 C 14.503906 23.976562 14.605469 24.429688 14.921875 24.722656 C 14.933594 24.734375 16.023438 25.773438 16.472656 27.082031 L 12.101562 27.082031 L 11.332031 25.542969 C 10.851562 24.582031 10.890625 23.457031 11.445312 22.539062 L 15.769531 15.328125 C 16.132812 14.726562 16.695312 14.257812 17.355469 14.011719 L 32.234375 8.429688 L 43.488281 14.058594 C 42.800781 15.820312 40.960938 20.15625 37.660156 25.5 Z M 47.917969 12.257812 C 47.917969 12.78125 47.570312 13.050781 47.421875 13.140625 C 47.273438 13.234375 46.878906 13.421875 46.410156 13.1875 L 31.828125 5.894531 L 34.695312 2.316406 L 47.917969 7.980469 Z M 47.917969 12.257812 "/>
</g>
</svg>
